<?xml version="1.0" encoding="utf-8"?>
<!-- Generator: Adobe Illustrator 19.0.0, SVG Export Plug-In . SVG Version: 6.00 Build 0)  -->
<svg version="1.1" id="Layer_1" xmlns="http://www.w3.org/2000/svg" xmlns:xlink="http://www.w3.org/1999/xlink" x="0px" y="0px"
	 viewBox="131 -131 512 512" style="enable-background:new 131 -131 512 512;" xml:space="preserve">
<g id="XMLID_2_">
	<path id="XMLID_6_" d="M569.5,155.7v152.6c0,5.6-1.9,10.2-5.6,14c-3.7,3.7-8.4,5.6-14,5.6H428.1v-121h-80.9v121.9H224.4
		c-5.6,0-10.2-1.9-14-5.6c-3.7-3.7-5.6-8.4-5.6-14V155.7v-0.9v-0.9L387.1,4.1l182.3,150.7C569.5,154.8,569.5,154.8,569.5,155.7z
		 M641.1,134.3l-19.5,23.3c-1.9,1.9-3.7,2.8-6.5,3.7h-0.9c-2.8,0-4.7-0.9-6.5-1.9L387.2-24.8L167.6,158.5c-2.8,1.9-4.7,2.8-7.4,1.9
		c-2.8,0-4.7-1.9-6.5-3.7l-20.5-22.4c-1.9-1.9-2.8-4.7-1.9-7.4c0-2.8,0.9-5.6,3.7-6.5L363-70.4c6.5-5.6,14.9-8.4,24.2-8.4
		s17.7,2.8,24.2,8.4l77.2,65.1v-62.3c0-2.8,0.9-5.6,2.8-7.4c1.9-1.9,4.7-2.8,7.4-2.8h60.5c2.8,0,5.6,0.9,7.4,2.8
		c1.9,1.9,2.8,4.7,2.8,7.4V61.7l69.8,57.7c1.9,1.9,3.7,3.7,3.7,6.5C643,128.7,642.1,131.5,641.1,134.3z"/>
</g>
</svg>
