<?xml version="1.0" encoding="utf-8"?>
<!-- Generator: Adobe Illustrator 24.1.1, SVG Export Plug-In . SVG Version: 6.00 Build 0)  -->
<svg version="1.1" id="Layer_1" xmlns="http://www.w3.org/2000/svg" xmlns:xlink="http://www.w3.org/1999/xlink" x="0px" y="0px"
	 viewBox="0 0 512 512" style="enable-background:new 0 0 512 512;" xml:space="preserve">
<g>
	<path d="M406.6,150.6c0-41.6-16.9-79.2-44.1-106.5C335.2,16.9,297.6,0,256,0s-79.2,16.9-106.5,44.1
		c-27.2,27.2-44.1,64.9-44.1,106.5s16.9,79.2,44.1,106.5c27.3,27.3,64.9,44.1,106.5,44.1s79.2-16.9,106.5-44.1
		C389.7,229.8,406.6,192.2,406.6,150.6z M75.3,451.8c0,30.1,67.8,60.2,180.7,60.2c106,0,180.7-30.1,180.7-60.2
		c0-60.2-70.9-120.5-180.7-120.5C143.1,331.3,75.3,391.5,75.3,451.8z"/>
</g>
</svg>
